<svg id="Layer_1" xmlns="http://www.w3.org/2000/svg" viewBox="0 0 38 38"><style>.st0{fill:#000}</style><path class="st0" d="M19 37.5C8.8 37.5.5 29.2.5 19S8.8.5 19 .5 37.5 8.8 37.5 19 29.2 37.5 19 37.5zm0-35C9.9 2.5 2.5 9.9 2.5 19S9.9 35.5 19 35.5 35.5 28.1 35.5 19 28.1 2.5 19 2.5z"/><path class="st0" d="M19 37.5C8.8 37.5.5 29.2.5 19S8.8.5 19 .5 37.5 8.8 37.5 19 29.2 37.5 19 37.5zm0-35C9.9 2.5 2.5 9.9 2.5 19S9.9 35.5 19 35.5 35.5 28.1 35.5 19 28.1 2.5 19 2.5z"/><g><path class="st0" d="M16.5 28.5L15 27.1l7.8-7.7-8.2-8.5 1.5-1.4 9.5 10z"/></g></svg>