<svg id="Layer_1" xmlns="http://www.w3.org/2000/svg" viewBox="0 0 38 38"><style>.st0{fill:#000}</style><path class="st0" d="M.5 19C.5 8.8 8.8.5 19 .5S37.5 8.8 37.5 19 29.2 37.5 19 37.5.5 29.2.5 19zm2 0c0 9.1 7.4 16.5 16.5 16.5S35.5 28.1 35.5 19 28.1 2.5 19 2.5 2.5 9.9 2.5 19z"/><path class="st0" d="M.5 19C.5 8.8 8.8.5 19 .5S37.5 8.8 37.5 19 29.2 37.5 19 37.5.5 29.2.5 19zm2 0c0 9.1 7.4 16.5 16.5 16.5S35.5 28.1 35.5 19 28.1 2.5 19 2.5 2.5 9.9 2.5 19z"/><g><path class="st0" d="M21.5 28.5l1.5-1.4-7.8-7.7 8.2-8.5-1.5-1.4-9.5 10z"/></g></svg>