<svg xmlns="http://www.w3.org/2000/svg" viewBox="0 0 604 23.5"><path d="M5.5 15.6H3.7V5.7h1.8v-1H0v1h1.8v9.9H0v1h5.5v-1zm18.1-9.9h1.8v-1h-4.9v1h1.8v7.4l-6.8-8.4h-3.1v1h1.7l.5.7v9.3h-1.8v1h4.9v-1h-1.8V8l7 8.8h.7V5.7zm9.5 10.4c.9.6 1.8.9 2.7.9 2 0 3.5-1.5 3.5-3.4 0-1.7-.6-2.5-2.7-3.7-.5-.3-1.1-.7-1.7-1.1-.8-.5-1.1-.9-1.1-1.5 0-1.1.7-1.7 1.9-1.7.7 0 1.1.1 2 .7v1.3h.9V4.3h-.9v.6c-.7-.4-1.4-.6-2.2-.6-1.9 0-3.5 1.5-3.5 3.3 0 1.5.7 2.4 2.9 3.6 2 1.1 2.7 1.8 2.7 2.7 0 1-.9 1.7-2.1 1.7-.8 0-1.5-.2-2.5-.9v-1.3h-.9v3.2h.9v-.5zm19.6-.5h-2.1V5.7h3.5v1.4h.9v-3h-.9v.5h-8.9v-.5h-.9v3h.9V5.7h3.5v9.9h-2.1v1h6v-1zm13.4 0h-1.8V5.7h1.8v-1h-5.5v1h1.8v9.9h-1.8v1h5.5v-1zm13.8 0h-2.1V5.7h3.5v1.4h.9v-3h-.9v.5h-8.9v-.5h-.9v3h.9V5.7H76v9.9h-2v1h6v-1zm20.3-10.9h-4.9v1h1.8v6.5c0 2.1-1.3 3.6-3.1 3.6s-3-1.4-3-3.6V5.7h1.8v-1h-5.5v1h1.8v7c0 2.4 1.9 4.2 4.5 4.2 2.8 0 4.6-1.9 4.6-4.7V5.7h1.8v-1zm13.2 10.9h-2.1V5.7h3.5v1.4h.9v-3h-.9v.5H106v-.5h-.9v3h.9V5.7h3.5v9.9h-2.1v1h6v-1zm16.6-1.4h-.9v1.4H125V11h3.1v1.3h.9V8.7h-.9V10H125V5.7h4V7h.9V4.1h-.9v.5h-7.6v1h1.8v10h-1.8v1h8.7v-2.4zm14.1-5.6c-1.1 1.3-1.7 2.9-1.7 4.5 0 2.1 1.1 3.7 2.7 3.7.9 0 1.9-.5 2.7-1.4 1.1-1.3 1.8-2.8 1.8-4.3 0-2.3-1.1-3.9-2.8-3.9-1 0-1.9.5-2.7 1.4m2.3-.5c.9 0 1.7 1.4 1.7 3.1 0 2.4-1.2 4.6-2.5 4.6-1 0-1.7-1.4-1.7-3.2v-.7c.2-2 1.3-3.8 2.5-3.8m10.7-.4h-1.9l.4-2.2c.3-1.9.8-2.7 2-3.1l.3.2c.7.5.9.7 1.4 1.3l1.1-1.2c-.8-.7-1.5-.9-2.4-.9-.4 0-.9.1-1.4.4-1.2.6-1.9 1.5-2.1 2.9l-.4 2.6-1.7.6v.4h1.6l-1.3 8.4c-.4 2.6-.7 3.2-1.9 3.9-.7-.3-.9-.5-1.6-1.2l-1 1.2c.8.7 1.2.9 2 .9 1.8 0 3.3-1.7 3.7-4.1l1.3-9.1h1.9v-1zm22.5 6h-.9V15c-1.1.6-1.7.9-2.5.9-2.6 0-4.6-2.3-4.6-5.4 0-2.9 1.8-5 4.3-5 1.1 0 1.9.3 2.9 1.1v.9h.9V4.3h-.9v.8c-1.1-.6-1.8-.8-2.9-.8-3.8 0-6.4 2.6-6.4 6.3 0 3.6 2.6 6.3 6.3 6.3 1.6 0 2.5-.2 3.8-.9v-2.3zm17.6 1.9h-.7c-.5 0-1-.3-1.4-1l-2.2-3.5c1.6-.3 2.6-1.6 2.6-3.3 0-2.1-1.3-3.2-3.6-3.2h-5.7v1h1.8v9.9h-1.8v1h5.5v-1h-1.8v-4.3h1.2l2.6 4.2c.6 1 .8 1.1 1.9 1.1h1.8v-.9zm-7.4-9.9h1.7c1.3 0 1.9.8 1.9 2.2 0 1.4-.8 2.4-1.9 2.4h-1.7V5.7zm21.8 8.5h-.9v1.4h-4.1V11h3.1v1.3h.9V8.7h-.9V10h-3.1V5.7h4V7h.9V4.1h-.9v.5H203v1h1.8v10H203v1h8.7v-2.4zm17 1.4h-1l-4.5-11.4h-.6l-4.6 11.4h-.9v1h3.4v-1H219l1.2-2.8h4.4l1.1 2.8h-1.1v1h4.1v-1zm-8-3.8l1.8-4.5 1.8 4.5h-3.6zm20.3 3.8h-2.1V5.7h3.5v1.4h.9v-3h-.9v.5h-8.9v-.5h-.9v3h.9V5.7h3.5v9.9H235v1h6v-1zm13.4 0h-1.8V5.7h1.8v-1h-5.5v1h1.8v9.9h-1.8v1h5.5v-1zm16-9.9h1v-1h-3.5v1h1.4l-3.1 8-3.1-8h1.5v-1h-4.7v1h1.2l4.4 11.2h.6l4.3-11.2zm15.2 8.5h-.9v1.4h-4.1V11h3.1v1.3h.9V8.7h-.9V10h-3.1V5.7h4V7h.9V4.1h-.9v.5h-7.6v1h1.8v10h-1.8v1h8.7v-2.4zm23.1 1.4h-1l-4.4-11.4h-.6l-4.7 11.4h-.9v1h3.4v-1H299l1.2-2.8h4.4l1.1 2.8h-1.1v1h4.1v-1zm-8.1-3.8l1.8-4.5 1.8 4.5h-3.6zm13.4 4.8h5.7c3.3 0 5.9-2.6 5.9-6 0-3.3-2.6-6-5.9-6h-5.7v1h1.8v10h-1.8v1zm3.6-1V5.7h1.9c2.2 0 3.9 2.2 3.9 5s-1.7 4.9-4 4.9h-1.8zm23.3-9.9h1v-1h-3.5v1h1.4l-3 8-3.1-8h1.5v-1h-4.7v1h1.2l4.4 11.2h.6l4.2-11.2zm15 8.5h-.9v1.4h-4.1V11h3.1v1.3h.9V8.7h-.9V10h-3.1V5.7h4V7h.9V4.1h-.9v.5h-7.6v1h1.8v10h-1.8v1h8.7v-2.4zm17.8 1.4h-.7c-.5 0-1-.3-1.4-1l-2.2-3.5c1.6-.3 2.6-1.6 2.6-3.3 0-2.1-1.3-3.2-3.6-3.2h-5.7v1h1.8v9.9h-1.8v1h5.5v-1h-1.8v-4.3h1.2l2.6 4.2c.6 1 .8 1.1 1.9 1.1h1.8v-.9zm-7.5-9.9h1.7c1.3 0 1.9.8 1.9 2.2 0 1.4-.8 2.4-1.9 2.4h-1.7V5.7zm19.7 9.9h-2.1V5.7h3.5v1.4h.9v-3h-.9v.5h-8.9v-.5h-.9v3h.9V5.7h3.5v9.9h-2.1v1h6v-1zm13.1 0h-1.8V5.7h1.8v-1h-5.5v1h1.8v9.9h-1.8v1h5.5v-1zm7.7.5c.9.6 1.8.9 2.7.9 2 0 3.5-1.5 3.5-3.4 0-1.7-.6-2.5-2.7-3.7-.5-.3-1.1-.7-1.7-1.1-.8-.5-1.1-.9-1.1-1.5 0-1.1.7-1.7 1.9-1.7.7 0 1.1.1 2 .7v1.3h.9V4.3h-.9v.6c-.7-.4-1.4-.6-2.2-.6-1.9 0-3.5 1.5-3.5 3.3 0 1.5.7 2.4 2.9 3.6 2 1.1 2.7 1.8 2.7 2.7 0 1-.9 1.7-2.1 1.7-.8 0-1.5-.2-2.5-.9v-1.3h-.9v3.2h.9v-.5zm18.1-.5h-1.8V5.7h1.8v-1h-5.5v1h1.8v9.9h-1.8v1h5.5v-1zm17.9-9.9h1.8v-1h-4.9v1h1.8v7.4l-6.8-8.4h-3.1v1h1.7l.5.7v9.3h-1.8v1h4.9v-1h-1.8V8l7 8.8h.7V5.7zm18.4 6.9h1.8v-1h-5.5v1h1.8v3c-.8.2-1.1.3-1.6.3-2.9 0-4.9-2.3-4.9-5.5 0-2.9 1.9-5.1 4.4-5.1.9 0 1.7.2 2.8.8v1.2h.9v-3h-.9V5c-1.4-.5-2.1-.7-3-.7-3.5 0-6.2 2.7-6.2 6.3 0 3.6 2.6 6.3 6.3 6.3 1.4 0 2.4-.2 4.1-.9v-3.4zm20 3.2c.6-.6 1.1-1.3 1.8-2.5l-.6-.4c-.6 1-.9 1.4-1.6 2.1v-.6c0-.4 0-.8.2-1.5l1-5.8h-1l-.2.7c-.7-.5-1.1-.7-1.8-.7-1.3 0-2.1.5-3 1.9-.9 1.4-1.4 3.3-1.4 5 0 1.7.4 2.7 1 2.7 1.4 0 3.3-1.8 4.3-4.2l-.1.8c-.1.4-.1 1.1-.1 1.5 0 .6.1 1.1.3 1.7.3.1.6-.1 1.2-.7m-1.9-3.6c-.5 1-1 1.7-1.6 2.3-.2.2-.4.4-.6.5-.3.2-.6.4-.7.4-.3 0-.5-.8-.5-1.9 0-2.9 1.3-5.5 2.8-5.5.6 0 1 .3 1.7 1-.3 1.4-.6 2.2-1.1 3.2m13 3.9c.7-.5 1-1 2.2-2.7l-.6-.4c-.2.2-.3.4-.4.6-.5.8-.7 1-1.4 1.7l.8-5.4c.1-.6.2-1.1.2-1.4 0-.7-.3-1.2-.8-1.2-1.1 0-2.9 1.7-4.5 4.4l.7-4.4h-.5l-2.6.9v.4h1.6l-1.2 8h1.3l.1-1.6c.1-1.1.4-1.9 1-2.8.4-.7.5-.8 1.8-2.4.7-.8 1-1.1 1.3-1.1.2 0 .3.2.3.6 0 .1 0 .2-.1.7l-.6 4.3c-.1.5-.1.9-.1 1.2 0 .4 0 .6.2 1.2.7-.1.9-.2 1.3-.6m10.7.1c.9-.8 1.5-1.5 2.3-2.9l-.6-.3c-.6 1.1-.8 1.4-1.7 2.1l2-13.3h-.5l-2.6 1v.4h1.6l-.7 4.6c-.6-.4-.9-.4-1.6-.4-1.3 0-2.1.5-3 1.9-.9 1.4-1.4 3.3-1.4 5 0 1.7.4 2.7 1.1 2.7 1.4 0 3.2-1.7 4.2-4.2l-.3 1.7c-.1.5-.2 1.2-.2 1.6 0 .4 0 .5.2.8.6-.3.8-.4 1.2-.7m-1.3-4c-.5 1-1 1.7-1.6 2.3-.2.2-.4.4-.6.5-.3.2-.6.4-.7.4-.3 0-.5-.8-.5-1.9 0-2.9 1.3-5.5 2.8-5.5.5 0 1 .3 1.7 1-.3 1.4-.6 2.2-1.1 3.2m12.5 4.4h5.7c3.3 0 5.9-2.6 5.9-6 0-3.3-2.6-6-5.9-6H514v1h1.8v10H514v1zm3.7-1V5.7h1.9c2.2 0 3.9 2.2 3.9 5s-1.7 4.9-4 4.9h-1.8zm23.1-1.4h-.9v1.4h-4.1V11h3.1v1.3h.9V8.7h-.9V10h-3.1V5.7h4V7h.9V4.1h-.9v.5h-7.6v1h1.8v10h-1.8v1h8.7v-2.4zm7.5 1.9c.9.6 1.8.9 2.7.9 2 0 3.5-1.5 3.5-3.4 0-1.7-.6-2.5-2.7-3.7-.5-.3-1.1-.7-1.7-1.1-.8-.5-1.1-.9-1.1-1.5 0-1.1.7-1.7 1.9-1.7.7 0 1.1.1 2 .7v1.3h.9V4.3h-.8v.6c-.7-.4-1.4-.6-2.2-.6-1.9 0-3.5 1.5-3.5 3.3 0 1.5.7 2.4 2.9 3.6 2 1.1 2.7 1.8 2.7 2.7 0 1-.9 1.7-2.1 1.7-.8 0-1.5-.2-2.5-.9v-1.3h-.9v3.2h.9v-.5zm18.1-.5h-1.8V5.7h1.8v-1h-5.5v1h1.8v9.9h-1.8v1h5.5v-1zm16.9-3h1.8v-1h-5.5v1h1.8v3c-.8.2-1.1.3-1.6.3-2.9 0-4.9-2.3-4.9-5.5 0-2.9 1.9-5.1 4.4-5.1.9 0 1.7.2 2.8.8v1.2h.9v-3h-.9V5c-1.4-.5-2.1-.7-3-.7-3.5 0-6.2 2.7-6.2 6.3 0 3.6 2.6 6.3 6.3 6.3 1.4 0 2.4-.2 4.1-.9v-3.4zm18.9-6.9h1.8v-1h-4.9v1h1.8v7.4l-6.8-8.4H591v1h1.7l.5.7v9.3h-1.8v1h4.9v-1h-1.8V8l7 8.8h.7V5.7z"/></svg>