<svg xmlns="http://www.w3.org/2000/svg" viewBox="0 0 31 27"><path d="M28.8 5.6L26.6 18H8.9L6.6 4.5 0 3.4v2.2l4.4 1.1 2.2 13.5h22.1L31 5.6h-2.2zM12.2 22.5c-1.2 0-2.2 1-2.2 2.2 0 1.2 1 2.2 2.2 2.2 1.2 0 2.2-1 2.2-2.2 0-1.2-1-2.2-2.2-2.2zm12.2 0c-1.2 0-2.2 1-2.2 2.2 0 1.2 1 2.2 2.2 2.2 1.2 0 2.2-1 2.2-2.2 0-1.2-1-2.2-2.2-2.2zm-6.1-10.1c1.5 0 2.7-.5 3.6-1.5.9-1.1 1.4-2.6 1.4-4.7 0-2-.5-3.6-1.4-4.7-.4-.5-1-.9-1.6-1.1-.6-.3-1.3-.4-2-.4-1.5 0-2.7.5-3.6 1.5-.9 1.1-1.4 2.6-1.4 4.7 0 2 .5 3.6 1.4 4.7.8 1 2 1.5 3.6 1.5zM16.2 3c.5-.7 1.1-1.1 2-1.1.9 0 1.5.4 2 1.1.5.8.8 1.8.8 3.2 0 1.4-.2 2.4-.7 3.1-.5.7-1.1 1.1-2 1.1-.9 0-1.5-.4-2-1.1-.5-.7-.7-1.8-.7-3.1-.1-1.4.2-2.4.6-3.2z"/></svg>